<svg version="1.1" xmlns="http://www.w3.org/2000/svg" xmlns:xlink="http://www.w3.org/1999/xlink" style="display: none;">
  <symbol id="arrow-down" viewBox="0 0 24 24">
    <g>
      <path d="M2.812,4.594L12,13.781l9.188-9.188L24,7.406l-12,12l-12-12L2.812,4.594z"/>
    </g>
  </symbol>

  <symbol id="close" viewBox="0 0 24 24">
    <g>
      <path d="M24,2.416L14.416,12L24,21.584L21.584,24L12,14.416L2.416,24L0,21.584L9.584,12L0,2.416L2.416,0L12,9.584L21.584,0 L24,2.416z"/>
    </g>
  </symbol>
  <symbol id="add" viewBox="0 0 24 24">
    <g>
	    <path d="M24,13.691H13.691V24h-3.383V13.691H0v-3.383h10.309V0h3.383v10.309H24V13.691z"/>
    </g>
  </symbol>
  <symbol id="edit" viewBox="0 0 24 24">
    <g>
	    <path d="M0,19L14.75,4.25l5,5L5,24H0V19z M23.625,5.375l-2.438,2.438l-5-5l2.438-2.438C18.875,0.125,19.188,0,19.562,0 S20.25,0.125,20.5,0.375L23.625,3.5C23.875,3.75,24,4.062,24,4.438S23.875,5.125,23.625,5.375z"/>
    </g>
  </symbol>
  <symbol id="navigate-prev" viewBox="0 0 24 24">
    <g>
      <path d="M19.406,2.812L10.219,12l9.188,9.188L16.594,24l-12-12l12-12L19.406,2.812z"/>
    </g>
  </symbol>
  <symbol id="navigate-next" viewBox="0 0 24 24">
    <g>
      <path d="M7.406,0l12,12l-12,12l-2.812-2.812L13.781,12L4.594,2.812L7.406,0z"/>
    </g>
  </symbol>
  <symbol id="list" viewBox="0 0 24 24">
    <g fill-rule="evenodd">
      <path d="M5.3125,5 L24,5 L24,7.6875 L5.3125,7.6875 L5.3125,5 Z M5.3125,18.375 L5.3125,15.6875 L24,15.6875 L24,18.375 L5.3125,18.375 Z M5.3125,13 L5.3125,10.375 L24,10.375 L24,13 L5.3125,13 Z M0,7.6875 L0,5 L2.6875,5 L2.6875,7.6875 L0,7.6875 Z M0,18.375 L0,15.6875 L2.6875,15.6875 L2.6875,18.375 L0,18.375 Z M0,13 L0,10.375 L2.6875,10.375 L2.6875,13 L0,13 Z"></path>
    </g>
  </symbol>

  <symbol id="radar" viewBox="0 0 24 24">
    <g fill-rule="evenodd">
        <path d="M20.5070423,3.49295775 C22.8356924,5.82160789 24,8.65726028 24,12 C24,15.3051808 22.8263028,18.1314437 20.4788732,20.4788732 C18.1314437,22.8263028 15.3051808,24 12,24 C8.69481915,24 5.86855634,22.8263028 3.52112676,20.4788732 C1.17369718,18.1314437 0,15.3051808 0,12 C0,8.69481915 1.17369718,5.86855634 3.52112676,3.52112676 C5.86855634,1.17369718 8.69481915,0 12,0 L13.1830986,0 L13.1830986,9.91549296 C14.0093938,10.3661994 14.4225352,11.0610282 14.4225352,12 C14.4225352,12.6385008 14.1784062,13.2018755 13.6901408,13.6901408 C13.2018755,14.1784062 12.6385008,14.4225352 12,14.4225352 C11.3614992,14.4225352 10.7981245,14.1784062 10.3098592,13.6901408 C9.8215938,13.2018755 9.57746479,12.6385008 9.57746479,12 C9.57746479,11.0610282 9.9906062,10.3661994 10.8169014,9.91549296 L10.8169014,7.38028169 C9.76525296,7.68075268 8.90141183,8.24412732 8.22535211,9.07042254 C7.54929239,9.89671775 7.21126761,10.8732338 7.21126761,12 C7.21126761,13.3145606 7.68074648,14.4413099 8.61971831,15.3802817 C9.55869014,16.3192535 10.6854394,16.7887324 12,16.7887324 C13.3145606,16.7887324 14.4413099,16.3192535 15.3802817,15.3802817 C16.3192535,14.4413099 16.7887324,13.3145606 16.7887324,12 C16.7887324,10.7605572 16.3192535,9.63380789 15.3802817,8.61971831 L17.0704225,6.92957746 C18.4976597,8.35681465 19.2112676,10.0469386 19.2112676,12 C19.2112676,13.9906203 18.5070493,15.6901338 17.0985915,17.0985915 C15.6901338,18.5070493 13.9906203,19.2112676 12,19.2112676 C10.0093797,19.2112676 8.3098662,18.5070493 6.90140845,17.0985915 C5.4929507,15.6901338 4.78873239,13.9906203 4.78873239,12 C4.78873239,10.234733 5.36149662,8.68545268 6.50704225,7.35211268 C7.65258789,6.01877268 9.08919324,5.20187944 10.8169014,4.90140845 L10.8169014,2.47887324 C8.45069239,2.77934423 6.45071239,3.8309769 4.81690141,5.63380282 C3.18309042,7.43662873 2.36619718,9.55867324 2.36619718,12 C2.36619718,14.6291211 3.31454451,16.8920093 5.21126761,18.7887324 C7.1079907,20.6854555 9.37087887,21.6338028 12,21.6338028 C14.6291211,21.6338028 16.8920093,20.6854555 18.7887324,18.7887324 C20.6854555,16.8920093 21.6338028,14.6291211 21.6338028,12 C21.6338028,9.33332 20.6948451,7.06104225 18.8169014,5.18309859 L20.5070423,3.49295775 Z"></path>
    </g>
  </symbol>
</svg>