
<svg version="1.1" xmlns="http://www.w3.org/2000/svg" xmlns:xlink="http://www.w3.org/1999/xlink" style="display: none;">
  <symbol id="amp" viewBox="0 0 24 24">
    <path d="M11.998,0C5.373,0,0,5.374,0,12.001S5.373,24,11.998,24C18.628,24,24,18.628,24,12.001S18.628,0,11.998,0z M11.106,19.043 l-0.908,0.044l0.813-5.384H8.838c0,0-1.322,0-0.566-1.331c0.545-0.958,4.631-7.646,4.631-7.646h0.896v5.387h1.984 c0,0,0.542-0.141,0.542,0.544L11.106,19.043z"/>
  </symbol>

  <symbol id="angular" viewBox="0 24 24 24">
    <g>
      <polygon points="10.46,37.147 12.5,37.147 12.5,37.147 12.5,37.147 14.54,37.147 12.5,32.239 	"/>
      <path d="M12.5,24.5L12.5,24.5L12.5,24.5L1.328,28.484l1.704,14.771L12.5,48.5l0,0l0,0l9.468-5.244l1.704-14.771L12.5,24.5z M19.473,42.812h-2.604l0,0l-1.404-3.504H12.5l0,0l0,0H9.536l-1.404,3.504l0,0H5.528l0,0l6.972-15.66l0,0l0,0l0,0l0,0 L19.473,42.812L19.473,42.812z"/>
    </g>
  </symbol>

  <symbol id="aws" viewBox="0 0 24 24">
    <g>
      <polygon fill="#F28D16" points="10.597,8.26 13.399,9.195 13.402,5.039 10.597,4.208 	"/>
      <polygon fill="#F28D16" points="14.13,9.195 16.926,8.257 16.936,4.208 14.13,5.039 	"/>
      <polygon fill="#F28D16" points="13.749,2.961 11.169,3.769 13.753,4.462 16.363,3.769 	"/>
      <polygon fill="#F28D16" points="17.662,8.26 20.464,9.195 20.468,5.039 17.662,4.208 	"/>
      <polygon fill="#F28D16" points="21.194,5.039 21.194,9.195 23.99,8.257 24,4.208 	"/>
      <polygon fill="#F28D16" points="20.814,2.961 18.233,3.769 20.817,4.462 23.429,3.769 	"/>
      <polygon fill="#F28D16" points="0,14.182 2.802,15.117 2.805,10.961 0,10.13 	"/>
      <polygon fill="#F28D16" points="3.532,15.117 6.328,14.179 6.338,10.13 3.532,10.961 	"/>
      <polygon fill="#F28D16" points="3.152,8.883 0.571,9.691 3.156,10.384 5.766,9.691 	"/>
      <polygon fill="#F28D16" points="7.065,14.182 9.867,15.117 9.87,10.961 7.065,10.13 	"/>
      <polygon fill="#F28D16" points="10.597,15.117 13.393,14.179 13.402,10.13 10.597,10.961 	"/>
      <polygon fill="#F28D16" points="10.217,8.883 7.636,9.691 10.221,10.384 12.831,9.691 	"/>
      <polygon fill="#F28D16" points="3.532,20.104 6.334,21.039 6.338,16.883 3.532,16.052 	"/>
      <polygon fill="#F28D16" points="7.065,21.039 9.86,20.102 9.87,16.052 7.065,16.883 	"/>
      <polygon fill="#F28D16" points="6.684,14.806 4.104,15.613 6.688,16.306 9.299,15.613 	"/>
    </g>
  </symbol>

  <symbol id="awsAppsync" viewBox="0 0 24 24">
    <g>
      <g>
        <path d="M12.4,23.6c-1.896,0-3.776-0.467-5.438-1.351l0.805-1.514c1.415,0.753,3.018,1.15,4.634,1.15 c5.45,0,9.886-4.435,9.886-9.886c0-2.231-0.726-4.337-2.098-6.089l1.35-1.057C23.148,6.911,24,9.382,24,12 C24,18.396,18.796,23.6,12.4,23.6z"/>
        <g>
          <polygon points="19.576,7.818 18.135,2.897 23.116,4.109"/>
        </g>
      </g>
      <g>
        <path d="M1.714,16.519C1.107,15.087,0.8,13.567,0.8,12C0.8,5.604,6.004,0.4,12.4,0.4c0.791,0,1.582,0.081,2.351,0.239 l-0.346,1.679C13.75,2.183,13.076,2.114,12.4,2.114c-5.451,0-9.886,4.435-9.886,9.886c0,1.336,0.261,2.632,0.777,3.851 L1.714,16.519z"/>
        <g>
          <polygon points="4.386,14.167 4.493,19.293 0,16.823"/>
        </g>
      </g>
      <circle cx="7.791" cy="15.36" r="1.959"/>
      <circle cx="17.149" cy="15.36" r="1.958"/>
      <path d="M14.206,7.377c0,0.459-0.159,0.882-0.423,1.216c-0.359,0.452-0.914,0.742-1.536,0.742c-1.082,0-1.959-0.877-1.959-1.958 c0-1.082,0.877-1.959,1.959-1.959S14.206,6.295,14.206,7.377z"/>
      <rect x="8.966" y="14.504" width="7.008" height="1.714"/>
      <rect x="11.437" y="10.353" transform="matrix(0.5251 0.8511 -0.8511 0.5251 16.7032 -7.5125)" width="7.291" height="1.713"/>
      <rect x="8.848" y="7.564" transform="matrix(0.8511 0.525 -0.525 0.8511 7.3302 -3.4259)" width="1.713" height="7.291"/>
    </g>
  </symbol>

  <symbol id="awsLambda" viewBox="116.5 167.5 24 24">
    <g>
      <path d="M117.812,172.357v14.285l-0.844-0.349v-13.588L117.812,172.357 M118.03,171.833l-1.53,0.634v14.066l1.53,0.634l0.251-0.369 v-14.693L118.03,171.833L118.03,171.833z"/>
      <path d="M129.99,173.6l2.094-0.899l6.967,2.233l-1.853,0.199L129.99,173.6"/>
      <path d="M135.491,184.722l-3.331,1.067l-0.545-0.238L135.491,184.722 M137.238,183.866l-7.168,1.534l2.054,0.899l6.967-2.233 L137.238,183.866L137.238,183.866z"/>
      <path d="M133.98,176.088l0.02,0.035v6.791l-2.938-0.321v-6.186L133.98,176.088 M134.259,175.667l-3.665,0.399v6.867l3.665,0.399 l0.21-0.312v-6.984L134.259,175.667L134.259,175.667z"/>
      <path d="M121.875,170.659v17.682l-1.564-0.647v-16.387L121.875,170.659 M122.097,170.134l-2.255,0.933v16.867l2.255,0.933 l0.247-0.413v-17.927L122.097,170.134L122.097,170.134z"/>
      <path d="M128.351,167.997l0.056,0.065v22.936l-0.02,0.02l-3.001-1.256v-20.523L128.351,167.997 M128.5,167.5l-3.584,1.5v21 l3.584,1.5l0.375-0.356v-23.204L128.5,167.5L128.5,167.5z"/>
      <path d="M138.66,175.358v8.317l-1.074-0.116v-8.086L138.66,175.358 M138.97,174.934l-1.853,0.199v8.768l1.853,0.199l0.159-0.226 v-8.749L138.97,174.934L138.97,174.934z"/>
      <path d="M134.259,175.667v7.699l3.825-3.866L134.259,175.667"/>
      <path d="M138.97,171.833L128.5,167.5v24l12-4.967v-14.066L138.97,171.833L138.97,171.833z M138.97,184.111l-6.886,1.703v-12.628 l6.886,1.702V184.111L138.97,184.111z"/>
      <path d="M124.916,188.076l-2.819,0.757v-18.699l2.819,0.757L124.916,188.076z"/>
      <polyline points="119.842,172.203 118.03,171.833 118.03,187.167 119.842,186.817 119.842,172.092 	"/>
    </g>
  </symbol>
  
  <symbol id="web-components">
    <g>
      <path d=" M 5.618 2.4 L 0 12 L 5.618 21.6 L 18.457 21.6 L 21.108 17.096 L 20.436 16.342 L 21.377 16.342 L 23.759 12.384 L 24 12.014 L 21.385 7.68 L 20.434 7.673 L 21.064 6.92 L 18.442 2.415 L 5.618 2.4 Z  M 12.307 3.401 L 17.765 3.401 L 15.988 5.933 L 10.825 5.933 L 12.307 3.401 Z  M 18.375 4.265 L 19.852 6.818 L 19.138 7.673 L 15.947 7.673 L 18.375 4.265 Z  M 6.082 12 L 9.112 6.904 L 15.235 6.919 L 14.741 7.673 L 17.138 11.631 L 18.029 11.616 L 17.737 11.956 L 18.109 12.4 L 17.138 12.399 L 14.756 16.328 L 15.306 17.096 L 9.076 17.096 L 6.082 12 Z  M 16.502 8.659 L 20.561 8.659 L 18.86 10.646 L 17.932 10.646 L 17.705 10.646 L 16.502 8.659 Z  M 19.386 12.381 L 19.039 11.963 L 21.25 9.382 L 22.836 12.014 L 22.605 12.398 L 19.386 12.381 Z  M 17.962 13.37 L 18.106 13.37 L 22.003 13.37 L 20.808 15.357 L 19.62 15.357 L 17.962 13.37 Z  M 15.943 16.292 L 17.274 14.096 L 19.777 17.096 L 19.769 17.096 L 16.534 17.096 L 15.943 16.292 Z  M 10.81 18.081 L 15.289 18.081 L 19.372 18.081 L 17.88 20.614 L 12.292 20.614 L 10.81 18.081 Z " />
    </g>
  </symbol>

  <symbol id="gulp">
    <g>
      <path d=" M 14.806 13.904 C 14.742 13.294 16.14 12.41 15.782 12.382 C 15.009 12.426 14.625 13.287 14.236 14.189 C 14.093 14.52 13.606 15.929 13.286 15.756 C 12.967 15.582 13.701 14.423 13.906 13.735 C 13.669 13.909 12.799 14.585 12.574 13.952 C 12.214 14.258 11.443 14.424 11.53 13.62 C 11.338 13.959 10.907 14.434 10.391 14.237 C 9.712 13.978 10.784 11.816 11.05 11.925 C 11.317 12.034 10.997 12.526 10.913 12.718 C 10.728 13.139 10.515 13.668 10.657 13.776 C 10.901 13.962 11.565 13.074 11.58 13.054 C 11.704 12.89 12.058 11.817 12.343 11.94 C 12.629 12.064 11.632 13.481 12.005 13.762 C 12.08 13.819 12.387 13.727 12.574 13.525 C 12.695 13.394 12.654 13.104 13.057 12.142 C 13.46 11.18 13.82 9.982 14.097 10.073 C 14.373 10.165 14.145 10.779 14.046 11.009 C 13.58 12.084 12.775 13.862 13.155 13.727 C 13.535 13.593 13.732 13.585 14.104 13.149 C 14.476 12.714 14.459 11.997 14.707 12.013 C 14.955 12.028 14.913 12.258 14.853 12.433 C 15.097 12.154 16.009 11.566 16.23 12.148 C 16.491 12.837 14.924 13.833 15.315 13.782 C 15.696 13.733 16.313 13.342 16.576 12.987 L 17.301 6.469 C 17.301 6.469 16.571 7.072 11.93 7.072 C 7.288 7.072 6.634 6.481 6.634 6.481 L 7.251 12.431 C 7.579 11.5 8.357 9.616 9.584 9.679 C 10.141 9.708 10.886 10.782 10.248 10.819 C 9.978 10.834 9.951 10.283 9.631 10.202 C 9.4 10.143 9.079 10.331 8.871 10.534 C 8.457 10.939 7.567 12.538 7.685 13.335 C 7.834 14.351 9.087 12.982 9.299 12.575 C 9.448 12.289 9.549 11.44 9.875 11.529 C 10.201 11.618 9.847 12.494 9.61 13.268 C 9.344 14.137 9.205 15.054 8.871 14.949 C 8.538 14.843 9.081 13.721 9.061 13.525 C 8.748 13.814 8.171 14.545 7.433 14.183 L 7.817 17.878 C 7.817 17.878 8.835 18.683 11.905 18.683 C 14.974 18.683 16.031 17.89 16.031 17.89 L 16.507 13.611 C 16.117 13.99 14.884 14.664 14.806 13.904 M 14.934 23.276 L 14.934 23.276 Z  M 13.927 6.429 C 14.018 6.416 14.158 6.399 14.159 6.289 C 14.159 6.224 14.104 6.187 14.042 6.168 L 13.995 6.24 C 14.034 6.249 14.056 6.261 14.056 6.273 C 14.056 6.314 13.764 6.334 13.523 6.337 C 13.282 6.34 12.967 6.312 12.967 6.27 C 12.967 6.261 12.979 6.253 12.999 6.246 L 12.953 6.173 C 12.903 6.193 12.865 6.225 12.864 6.28 C 12.864 6.308 12.877 6.351 12.9 6.372 C 12.988 6.451 13.206 6.455 13.514 6.453 C 13.822 6.452 13.927 6.429 13.927 6.429 L 13.927 6.429 Z  M 14.934 23.276 C 14.934 23.676 13.616 24 11.991 24 C 10.365 24 9.047 23.676 9.047 23.276 L 8.795 19.549 L 8.083 18.365 C 8.083 18.365 9.508 18.946 11.931 18.946 C 14.353 18.946 15.8 18.354 15.8 18.354 L 15.165 19.44 L 14.934 23.276 L 14.934 23.276 Z  M 17.357 0.643 L 14.691 3.448 L 14.208 5.359 L 14.208 5.359 C 16.091 5.477 17.404 5.743 17.404 6.052 C 17.404 6.472 14.984 6.812 12 6.812 C 9.016 6.812 6.596 6.472 6.596 6.052 C 6.596 5.633 9.016 5.293 12 5.293 C 12.423 5.292 12.845 5.299 13.268 5.314 L 13.829 3.031 L 16.662 0.031 L 16.662 0.031 C 16.662 0.031 16.662 0.031 16.662 0.031 C 16.73 -0.047 16.941 0.026 17.134 0.194 C 17.323 0.357 17.425 0.55 17.367 0.632 L 17.368 0.632 L 17.363 0.637 C 17.363 0.637 17.363 0.637 17.363 0.638 C 17.361 0.639 17.359 0.641 17.357 0.643 Z " fill-rule="evenodd" />
    </g>
  </symbol>

  <symbol id="sentry">
    <g>
      <path d=" M 13.922 2.417 C 13.525 1.732 12.794 1.309 12.002 1.309 C 11.21 1.309 10.478 1.732 10.082 2.417 L 6.92 7.893 L 7.727 8.356 C 12.229 10.96 15.126 15.648 15.441 20.839 L 13.222 20.839 C 12.91 16.436 10.432 12.475 6.609 10.269 L 5.803 9.807 L 2.858 14.928 L 3.664 15.391 C 5.644 16.554 6.98 18.563 7.287 20.839 L 2.217 20.839 C 2.085 20.841 1.963 20.772 1.896 20.658 C 1.829 20.544 1.829 20.403 1.895 20.289 L 3.308 17.842 C 2.831 17.44 2.284 17.128 1.695 16.921 L 0.297 19.363 C -0.099 20.049 -0.099 20.895 0.297 21.58 C 0.693 22.266 1.425 22.689 2.217 22.689 L 9.193 22.689 L 9.193 21.765 C 9.194 18.8 7.769 16.016 5.364 14.283 L 6.474 12.36 C 9.558 14.495 11.399 18.006 11.402 21.757 L 11.402 22.682 L 17.313 22.682 L 17.313 21.758 C 17.308 15.898 14.346 10.436 9.436 7.235 L 11.68 3.343 C 11.745 3.23 11.866 3.16 11.997 3.16 C 12.127 3.16 12.248 3.23 12.314 3.343 L 22.097 20.289 C 22.163 20.403 22.163 20.544 22.096 20.658 C 22.029 20.772 21.906 20.841 21.774 20.839 L 19.486 20.839 C 19.515 21.457 19.518 22.074 19.486 22.691 L 21.783 22.691 C 22.575 22.69 23.307 22.268 23.703 21.582 C 24.099 20.896 24.099 20.051 23.703 19.365 L 13.922 2.417 Z " />
    </g>
  </symbol>

  <symbol id="cypress">
    <g>
      <path d=" M 12 0 C 18.633 0 24 5.367 24 12 C 24 18.633 18.633 24 12 24 C 5.367 24 0 18.633 0 12 C 0 5.367 5.367 0 12 0 Z  M 18.371 17.28 C 17.935 18.633 17.28 19.636 16.364 20.378 C 15.447 21.12 14.225 21.513 12.698 21.644 L 12.393 19.636 C 13.396 19.505 14.138 19.287 14.618 18.938 C 14.793 18.807 15.142 18.415 15.142 18.415 L 11.52 6.807 L 14.531 6.807 L 16.625 15.491 L 18.851 6.807 L 21.775 6.807 L 18.371 17.28 M 7.855 6.415 C 8.553 6.415 9.207 6.502 9.731 6.72 C 10.298 6.938 10.822 7.244 11.345 7.68 L 10.124 9.338 C 9.775 9.076 9.425 8.902 9.12 8.771 C 8.815 8.64 8.422 8.596 8.073 8.596 C 6.589 8.596 5.847 9.731 5.847 12.044 C 5.847 13.222 6.022 14.051 6.415 14.531 C 6.807 15.055 7.331 15.273 8.073 15.273 C 8.422 15.273 8.771 15.229 9.076 15.098 C 9.382 14.967 9.731 14.793 10.167 14.531 L 11.389 16.276 C 10.385 17.105 9.251 17.498 7.942 17.498 C 6.895 17.498 6.022 17.28 5.236 16.844 C 4.495 16.407 3.884 15.753 3.491 14.924 C 3.098 14.095 2.88 13.135 2.88 12 C 2.88 10.909 3.098 9.905 3.491 9.076 C 3.884 8.204 4.495 7.549 5.236 7.069 C 5.978 6.676 6.851 6.415 7.855 6.415 M 18.371 17.28 Z " fill-rule="evenodd" />
    </g>
  </symbol>

  <symbol id="serverless" viewBox="0 0 24 24">
    <polygon points="3.68,14.33 20.319,0 13.468,10.923 20.319,10.062 4.816,24 11.589,13.116"/>
  </symbol>

  <symbol id="illustrator" viewBox="0 0 24 24">
    <g>
      <path d="M0,0.3v23.4h24V0.3H0z M1,1.3h22v21.4H1V1.3z"/>
      <path d="M8.33,13.55l-0.79,3c-0.02,0.08-0.05,0.101-0.15,0.101H5.92c-0.1,0-0.12-0.03-0.1-0.15l2.84-9.94 c0.05-0.18,0.08-0.34,0.1-0.83c0-0.07,0.03-0.1,0.08-0.1h2.1c0.07,0,0.1,0.02,0.12,0.1l3.18,10.79c0.02,0.08,0,0.131-0.08,0.131 H12.5c-0.08,0-0.13-0.021-0.15-0.09l-0.83-3.011H8.33L8.33,13.55z M11.11,11.93c-0.28-1.11-0.94-3.53-1.19-4.7H9.9 c-0.21,1.17-0.74,3.15-1.16,4.7H11.11z M15.609,6.37c0-0.64,0.451-1.02,1.021-1.02c0.61,0,1.021,0.41,1.021,1.02 c0,0.66-0.43,1.02-1.041,1.02C16.029,7.39,15.609,7.03,15.609,6.37L15.609,6.37z M15.73,8.64c0-0.08,0.029-0.12,0.119-0.12h1.57 c0.08,0,0.12,0.03,0.12,0.12v7.889c0,0.08-0.021,0.121-0.12,0.121h-1.55c-0.101,0-0.13-0.051-0.13-0.131V8.64H15.73z"/>
    </g>
  </symbol>

  <symbol id="photoshop" viewBox="0 0 24 24">
    <path d="M0,0.3v23.4h24V0.3H0z M1,1.3h22v21.4H1V1.3z M5.8,5.78c0-0.07,0.14-0.12,0.22-0.12 C6.66,5.63,7.61,5.61,8.6,5.61c2.77,0,3.85,1.52,3.85,3.47c0,2.54-1.84,3.63-4.1,3.63c-0.38,0-0.51-0.021-0.78-0.021v3.84 c0,0.08-0.03,0.121-0.12,0.121H5.92c-0.08,0-0.12-0.03-0.12-0.121V5.78L5.8,5.78z M7.58,11.09c0.23,0.02,0.41,0.02,0.81,0.02 c1.17,0,2.27-0.41,2.27-2c0-1.27-0.79-1.91-2.12-1.91c-0.4,0-0.78,0.02-0.96,0.03V11.09L7.58,11.09z M16.18,9.9 c-0.789,0-1.06,0.4-1.06,0.73c0,0.36,0.18,0.61,1.239,1.16c1.57,0.76,2.061,1.489,2.061,2.56c0,1.601-1.22,2.461-2.87,2.461 c-0.87,0-1.62-0.181-2.05-0.431c-0.07-0.03-0.08-0.08-0.08-0.159V14.75c0-0.1,0.051-0.13,0.12-0.08c0.63,0.41,1.351,0.59,2.01,0.59 c0.79,0,1.12-0.33,1.12-0.779c0-0.36-0.23-0.681-1.24-1.201c-1.42-0.68-2.01-1.369-2.01-2.52c0-1.29,1.01-2.36,2.76-2.36 c0.86,0,1.461,0.13,1.791,0.28c0.079,0.05,0.1,0.13,0.1,0.2v1.37c0,0.08-0.051,0.13-0.15,0.1C17.48,10.07,16.83,9.9,16.18,9.9 L16.18,9.9z"/>
  </symbol>

  <symbol id="sketch" viewBox="235 211.5 24 24">
    <g transform="translate(-9.000000, -28.000000)">
      <g transform="translate(9.000000, 28.000000)">
        <path d="M247,213.423l6.379,0.684l4.628,6.271L247,233.167l-11.006-12.789l4.627-6.271L247,213.423 M247,212.642l-6.802,0.729L235,220.415l12,13.943l12-13.943l-5.198-7.044L247,212.642L247,212.642z"/>

        <g transform="translate(0.000000, 160.000000)">
          <path d="M257.306,61.192L247,73.167l-10.306-11.975H257.306 M259,60.415h-24l12,13.943L259,60.415L259,60.415z"
            />
        </g>
        <g transform="translate(100.000000, 160.000000)">
          <path d="M152.87,61.192L147,72.653l-5.87-11.461H152.87 M154.142,60.415h-14.283L147,74.358L154.142,60.415 L154.142,60.415z"/>
        </g>
        <g transform="translate(100.000000, 0.000000)">
          <path d="M147,213.791l5.372,5.847h-10.744L147,213.791 M147,212.642l-7.142,7.773h14.283L147,212.642 L147,212.642z"/>
        </g>
        <g transform="translate(0.000000, 15.000000)">
          <path d="M235,205.415h4.907v-0.777h-3.23h-0.156"/>
        </g>

        <g transform="translate(440.500000, 87.500000) scale(-1, 1) translate(-440.500000, -87.500000) translate(387.000000, 15.000000)">
          <path d="M239.907,205.415H235l1.521-0.777h3.435L239.907,205.415z"/>
        </g>

        <g transform="translate(100.000000, 0.000000)">
          <path d="M140.198,213.371l-0.34,7.044l0.88-0.946l0.205-5.396L140.198,213.371z"/>
        </g>

        <g transform="translate(247.000000, 0.000000)">
          <path d="M7.142,220.415l-0.34-7.044l-0.744,0.702l0.209,5.39L7.142,220.415z"/>
        </g>
      </g>
    </g>
  </symbol>

  <symbol id="css3" viewBox="874.5 1238 24 24">
    <g>
      <path d="M882,1238h2.578v1.078h-1.5v1.079h1.5v1.078H882V1238z M885.094,1238h2.578v0.938h-1.5v0.188h1.5v2.156h-2.578v-0.985h1.5 v-0.188h-1.5V1238L885.094,1238z M888.188,1238h2.578v0.938h-1.5v0.188h1.5v2.156h-2.578v-0.985h1.5v-0.188h-1.5V1238L888.188,1238 z"/>
      <path d="M877.999,1242.716l1.547,17.355l6.944,1.929l6.962-1.931l1.549-17.353H877.999z M890.856,1257.107l-4.363,1.209 l0.007-0.001l-0.01,0.003l-4.36-1.211l-0.298-3.343h2.136l0.152,1.698l2.371,0.64l0.009-0.002l-0.007,0.002l2.374-0.641 l0.246-2.761h-7.376l-0.191-2.129h7.753l0.193-2.18h-8.136l-0.193-2.128h10.663L890.856,1257.107z"/>
    </g>
  </symbol>

  <symbol id="ecmascript" viewBox="348 348 24 24">
    <path d="M347.996,348v24h24.008v-24H347.996z M359.223,365.506h-7.686v-11.012h7.612v2.105h-5.434v2.302h4.774v2.058h-4.774v2.396 h5.507V365.506z M364.602,365.608c-2.093,0-3.445-0.997-4.104-2.302l1.835-1.062c0.482,0.788,1.11,1.367,2.221,1.367 c0.934,0,1.529-0.466,1.529-1.109c0-0.772-0.611-1.047-1.643-1.497l-0.562-0.242c-1.625-0.691-2.704-1.561-2.704-3.396 c0-1.689,1.288-2.978,3.299-2.978c1.433,0,2.463,0.5,3.204,1.803l-1.755,1.126c-0.387-0.691-0.805-0.965-1.449-0.965 c-0.659,0-1.078,0.418-1.078,0.965c0,0.676,0.419,0.95,1.385,1.368l0.563,0.242c1.914,0.821,2.993,1.657,2.993,3.541 C368.335,364.498,366.741,365.608,364.602,365.608z"/>
  </symbol>

  <symbol id="graphql" viewBox="0 0 24 24">
    <g>
      <g>
        <g>
          <rect x="7.223" y="-0.277" transform="matrix(-0.8659 -0.5002 0.5002 -0.8659 9.6566 21.6646)" width="1.017" height="19.63"/>
        </g>
      </g>
      <g>
        <g>
          <rect x="2.182" y="16.425" width="19.629" height="1.018"/>
        </g>
      </g>
      <g>
        <g>
          <rect x="2.065" y="18.881" transform="matrix(-0.866 -0.5 0.5 -0.866 4.7368 40.0486)" width="11.337" height="1.018"/>
        </g>
      </g>
      <g>
        <g>
          <rect x="10.594" y="4.107" transform="matrix(-0.866 -0.5 0.5 -0.866 28.039 16.7442)" width="11.338" height="1.017"/>
        </g>
      </g>
      <g>
        <g>
          <rect x="7.228" y="-1.057" transform="matrix(-0.4989 -0.8667 0.8667 -0.4989 7.5987 13.6168)" width="1.017" height="11.338"/>
        </g>
      </g>
      <g>
        <g>
          <rect x="6.456" y="9.029" transform="matrix(-0.5 -0.866 0.866 -0.5 16.1456 28.3972)" width="19.629" height="1.017"/>
        </g>
      </g>
      <g>
        <g>
          <rect x="2.96" y="6.331" width="1.018" height="11.338"/>
        </g>
      </g>
      <g>
        <g>
          <rect x="20.021" y="6.331" width="1.018" height="11.338"/>
        </g>
      </g>
      <g>
        <g>
          <rect x="15.82" y="14.454" transform="matrix(-0.4992 -0.8665 0.8665 -0.4992 7.5882 43.1532)" width="0.888" height="9.861"/>
        </g>
      </g>
      <path d="M22.388,18c-0.588,1.023-1.898,1.373-2.922,0.785c-1.024-0.589-1.374-1.899-0.785-2.925 c0.588-1.023,1.899-1.373,2.923-0.784C22.634,15.671,22.982,16.977,22.388,18"/>
      <path d="M5.313,8.139c-0.588,1.023-1.9,1.373-2.923,0.784S1.018,7.023,1.606,6c0.588-1.023,1.9-1.373,2.923-0.785 C5.553,5.81,5.902,7.115,5.313,8.139"/>
      <path d="M1.612,18c-0.588-1.023-0.239-2.329,0.785-2.924c1.023-0.589,2.329-0.239,2.923,0.784c0.588,1.025,0.239,2.33-0.785,2.925 C3.506,19.373,2.201,19.023,1.612,18"/>
      <path d="M18.687,8.139c-0.588-1.024-0.238-2.329,0.785-2.924C20.495,4.627,21.8,4.977,22.394,6c0.589,1.023,0.24,2.329-0.783,2.923 C20.587,9.512,19.274,9.163,18.687,8.139"/>
      <path d="M12,24c-1.183,0-2.139-0.956-2.139-2.139s0.956-2.139,2.139-2.139c1.183,0,2.139,0.956,2.139,2.139 C14.139,23.038,13.183,24,12,24"/>
      <path d="M12,4.278c-1.183,0-2.139-0.956-2.139-2.139C9.861,0.956,10.817,0,12,0c1.183,0,2.139,0.956,2.139,2.139 C14.139,3.322,13.183,4.278,12,4.278"/>
    </g>
  </symbol>

  <symbol id="github" viewBox="0 0 24 24">
    <path d="M512,500.296c-6.627,0-12,5.373-12,12c0,5.303,3.438,9.8,8.207,11.386c0.6,0.11,0.818-0.261,0.818-0.577 c0-0.285-0.011-1.231-0.017-2.233c-3.337,0.725-4.042-1.415-4.042-1.415c-0.546-1.386-1.333-1.755-1.333-1.755 c-1.09-0.744,0.083-0.729,0.083-0.729c1.205,0.083,1.839,1.236,1.839,1.236c1.071,1.834,2.81,1.304,3.492,0.996 c0.109-0.773,0.419-1.304,0.762-1.603c-2.664-0.304-5.466-1.333-5.466-5.931c0-1.311,0.468-2.38,1.234-3.22 c-0.122-0.305-0.535-1.526,0.119-3.177c0,0,1.006-0.322,3.3,1.23c0.957-0.268,1.982-0.399,3.003-0.404 c1.02,0.004,2.046,0.138,3.004,0.405c2.29-1.554,3.298-1.23,3.298-1.23c0.656,1.653,0.243,2.873,0.12,3.176 c0.77,0.84,1.233,1.909,1.233,3.22c0,4.61-2.807,5.625-5.479,5.922c0.432,0.372,0.814,1.102,0.814,2.221 c0,1.604-0.017,2.897-0.017,3.293c0,0.319,0.218,0.692,0.826,0.575c4.765-1.589,8.2-6.086,8.2-11.386 C524,505.669,518.627,500.296,512,500.296z"/>
  </symbol>

  <symbol id="html5" viewBox="244.5 268.5 24 24">
    <g>
      <path d="M247.999,273.217l1.547,17.355l6.944,1.928l6.962-1.931l1.549-17.353H247.999z M261.634,278.893h-0.007h-8.138l0.195,2.181 h7.757l-0.584,6.535l-4.364,1.209l0.007-0.002l-0.01,0.003l-4.36-1.21l-0.298-3.343h2.137l0.151,1.697l2.371,0.641l0.009-0.003 l-0.007,0.002l2.375-0.641l0.247-2.761h-7.282h-0.095l-0.574-6.437h10.662L261.634,278.893z"/>
      <g>
        <path d="M249.581,268.5h1.082v1.069h0.99V268.5h1.082v3.236h-1.082v-1.083h-0.99v1.083h-1.082V268.5L249.581,268.5z"/>
        <path d="M254.156,269.574h-0.953V268.5h2.987v1.074h-0.953v2.162h-1.082V269.574L254.156,269.574z"/>
        <path d="M256.665,268.5h1.127l0.694,1.138l0.693-1.138h1.128v3.236h-1.077v-1.604l-0.744,1.15h-0.019l-0.744-1.15v1.604h-1.059 V268.5z"/>
        <path d="M260.846,268.5h1.082v2.167h1.521v1.069h-2.604V268.5z"/>
      </g>
    </g>
  </symbol>

  <symbol id="hyperapp">
    <g>
      <path d=" M 20.975 5.91 L 8.014 5.91 L 9.492 1.851 L 5.172 1.851 L 0 16.06 L 4.32 16.06 L 6.537 9.97 L 19.497 9.97 L 18.758 12 L 7.969 12 L 5.747 18.09 L 5.747 18.09 C 5.626 18.421 5.565 18.771 5.565 19.124 C 5.565 20.784 6.93 22.149 8.59 22.149 L 15.064 22.149 L 16.542 18.09 L 10.067 18.09 L 10.812 16.06 L 17.281 16.06 L 16.542 18.09 L 20.862 18.09 L 23.818 9.97 L 23.818 9.97 C 23.938 9.639 24 9.288 24 8.935 C 24 7.276 22.634 5.91 20.975 5.91 Z " />
    </g>
  </symbol>

  <symbol id="jest">
    <g>
      <path d=" M 21.173 11.817 C 21.173 12.748 20.416 13.505 19.485 13.505 C 18.554 13.505 17.796 12.748 17.796 11.817 C 17.796 10.886 18.554 10.128 19.485 10.128 C 20.416 10.128 21.173 10.886 21.173 11.817 L 21.173 11.817 Z  M 21.557 1.091 L 18.837 9.114 C 18.719 9.142 18.604 9.178 18.492 9.221 L 15.805 3.739 L 13.11 9.188 C 12.994 9.148 12.874 9.115 12.751 9.091 L 10.04 1.091 L 21.557 1.091 L 21.557 1.091 Z  M 12.207 10.128 C 13.138 10.128 13.896 10.886 13.896 11.817 C 13.896 12.748 13.138 13.505 12.207 13.505 C 11.277 13.505 10.519 12.748 10.519 11.817 C 10.519 10.886 11.277 10.128 12.207 10.128 L 12.207 10.128 Z  M 4.902 10.144 C 5.834 10.144 6.591 10.902 6.591 11.833 C 6.591 12.764 5.834 13.521 4.902 13.521 C 3.972 13.521 3.214 12.764 3.214 11.833 C 3.214 10.902 3.972 10.144 4.902 10.144 L 4.902 10.144 Z  M 21.374 16.174 C 21.21 17.12 20.625 17.947 19.77 18.442 C 18.974 18.903 18.019 19.041 17.008 19.187 C 16.466 19.265 15.906 19.346 15.359 19.481 C 13.912 19.837 12.511 20.533 11.156 21.207 C 8.444 22.553 6.102 23.717 3.894 22.186 C 2.277 21.065 2.351 18.991 2.54 17.854 C 2.714 16.801 3.186 15.831 3.643 14.893 C 3.722 14.731 3.799 14.572 3.874 14.414 C 4.101 14.505 4.341 14.566 4.592 14.594 C 4.128 16.128 4.859 17.796 6.393 18.585 L 6.603 18.692 L 6.825 18.613 C 8.038 18.181 9.156 17.488 10.147 16.553 C 10.788 15.948 11.338 15.28 11.791 14.565 C 11.927 14.585 12.066 14.596 12.207 14.596 C 13.74 14.596 14.987 13.349 14.987 11.817 Q 14.911 11.844 16.705 11.817 Q 17.952 14.596 19.485 14.596 C 20.074 14.596 20.62 14.412 21.07 14.098 C 21.382 14.737 21.499 15.457 21.374 16.174 L 21.374 16.174 Z " />
    </g>
  </symbol>

  <symbol id="langEn" viewBox="0 0 24 24">
  <g>
    <path d="M3.374,0v20.626h16.625L24,24V0H3.374z M10.661,15.775H6.75c0.036,1.056,0.864,1.512,1.799,1.512 c0.685,0,1.177-0.096,1.619-0.264l0.216,1.02c-0.503,0.203-1.199,0.359-2.039,0.359c-1.895,0-3.01-1.164-3.01-2.951 c0-1.619,0.982-3.143,2.854-3.143c1.896,0,2.52,1.56,2.52,2.842C10.708,15.427,10.685,15.643,10.661,15.775z M17.188,18.282h-1.477 v-3.298c0-0.84-0.311-1.476-1.115-1.476c-0.588,0-0.994,0.421-1.15,0.864c-0.049,0.132-0.061,0.312-0.061,0.479v3.431h-1.487 v-4.101c0-0.673-0.012-1.236-0.047-1.74h1.295l0.07,0.875h0.037c0.252-0.455,0.889-1.006,1.857-1.006 c1.02,0,2.076,0.659,2.076,2.506V18.282z"/>
    <path d="M8.105,13.316c-0.912,0-1.295,0.828-1.354,1.428h2.565C9.329,14.205,9.087,13.316,8.105,13.316z"/>
  </g>
  </symbol>

  <symbol id="nodejs" viewBox="1123 1238 24 24">
    <g>
      <path d="M1134.018,1238.256c0.595-0.34,1.37-0.342,1.965,0c2.991,1.69,5.983,3.378,8.974,5.069 c0.562,0.316,0.939,0.943,0.934,1.591v10.169c0.004,0.675-0.409,1.316-1.003,1.626c-2.981,1.681-5.961,3.363-8.942,5.045 c-0.607,0.347-1.398,0.32-1.986-0.056c-0.894-0.519-1.789-1.034-2.683-1.552c-0.183-0.108-0.389-0.195-0.518-0.372 c0.114-0.154,0.318-0.173,0.483-0.24c0.373-0.118,0.716-0.309,1.059-0.494c0.087-0.059,0.192-0.036,0.275,0.017 c0.765,0.438,1.522,0.89,2.289,1.323c0.164,0.095,0.329-0.03,0.469-0.108c2.926-1.653,5.854-3.301,8.78-4.955 c0.108-0.052,0.168-0.167,0.159-0.286c0.002-3.354,0.001-6.709,0.001-10.064c0.013-0.135-0.065-0.259-0.188-0.314 c-2.971-1.673-5.94-3.349-8.911-5.022c-0.105-0.072-0.244-0.073-0.35,0c-2.971,1.674-5.94,3.352-8.91,5.024 c-0.122,0.055-0.203,0.177-0.188,0.312c0,3.354,0,6.709,0,10.065c-0.011,0.118,0.054,0.231,0.162,0.282 c0.792,0.449,1.586,0.896,2.379,1.344c0.447,0.24,0.996,0.384,1.488,0.199c0.435-0.156,0.739-0.6,0.731-1.061 c0.004-3.335-0.002-6.67,0.003-10.005c-0.011-0.148,0.13-0.271,0.273-0.256c0.381-0.003,0.763-0.005,1.144,0.001 c0.159-0.004,0.268,0.156,0.249,0.305c-0.001,3.356,0.004,6.712-0.002,10.069c0.001,0.894-0.367,1.867-1.194,2.305 c-1.019,0.528-2.279,0.416-3.286-0.09c-0.872-0.436-1.703-0.948-2.56-1.415c-0.595-0.308-1.006-0.951-1.002-1.626v-10.169 c-0.006-0.662,0.385-1.299,0.965-1.611C1128.057,1241.623,1131.037,1239.939,1134.018,1238.256z"/>
      <path d="M1136.645,1245.288c1.3-0.083,2.691-0.049,3.861,0.591c0.906,0.491,1.408,1.521,1.425,2.527 c-0.025,0.136-0.168,0.21-0.297,0.201c-0.378,0-0.755,0.005-1.132-0.002c-0.16,0.006-0.253-0.141-0.273-0.283 c-0.108-0.481-0.371-0.958-0.824-1.191c-0.695-0.348-1.502-0.331-2.261-0.323c-0.554,0.029-1.149,0.077-1.618,0.403 c-0.36,0.247-0.47,0.745-0.341,1.146c0.121,0.288,0.454,0.381,0.725,0.466c1.567,0.41,3.228,0.369,4.765,0.908 c0.636,0.22,1.259,0.647,1.477,1.313c0.284,0.893,0.16,1.96-0.476,2.677c-0.516,0.59-1.266,0.911-2.014,1.086 c-0.996,0.222-2.029,0.228-3.04,0.129c-0.95-0.108-1.94-0.358-2.674-1.006c-0.627-0.545-0.934-1.395-0.903-2.214 c0.007-0.138,0.145-0.234,0.277-0.224c0.38-0.003,0.76-0.004,1.14,0.001c0.152-0.011,0.264,0.12,0.272,0.263 c0.07,0.459,0.243,0.94,0.643,1.213c0.772,0.498,1.741,0.464,2.625,0.478c0.732-0.032,1.555-0.042,2.152-0.526 c0.315-0.276,0.409-0.738,0.323-1.135c-0.092-0.336-0.443-0.492-0.744-0.595c-1.547-0.489-3.226-0.312-4.757-0.865 c-0.622-0.22-1.224-0.635-1.462-1.274c-0.333-0.904-0.181-2.022,0.521-2.715 C1134.717,1245.648,1135.705,1245.383,1136.645,1245.288L1136.645,1245.288z"/>
    </g>
  </symbol>

  <symbol id="pwa" viewBox="0 0 24 24">
    <g>
      <path d="M5.336,9.729H4.683v1.831h0.648c0.42,0,0.708-0.09,0.864-0.27c0.144-0.162,0.215-0.381,0.215-0.658 c0-0.274-0.082-0.493-0.244-0.657C6.005,9.811,5.728,9.729,5.336,9.729z"/>
      <path d="M0,6.043v11.914h24V6.043H0z M6.712,12.767c-0.266,0.077-0.567,0.114-0.908,0.114H4.683v2.339H2.955V8.408h2.82 c0.801,0,1.411,0.231,1.827,0.692c0.08,0.087,0.15,0.18,0.211,0.277l-0.811,2.498L6.712,12.767z M12.859,15.218l-1.235-3.946 l-1.296,3.946H8.536l-0.93-1.594l0.915-2.82l1.011,2.005l1.435-4.402h1.399l1.335,4.402l1.878-4.402h1.821l-2.744,6.81H12.859z M19.154,15.593l-0.439-1.221H16.27l0.522-1.322h1.51l-0.718-2.004l0.896-2.266l2.565,6.812H19.154z"/>
    </g>
  </symbol>

  <symbol id="reactjs" viewBox="0 0 24 24">
    <g>
      <path d="M24,12.003c0-1.591-1.991-3.097-5.045-4.031c0.706-3.111,0.393-5.587-0.987-6.379c-0.318-0.187-0.69-0.274-1.096-0.274 v1.091c0.225,0,0.405,0.045,0.558,0.128c0.664,0.381,0.954,1.834,0.728,3.702c-0.054,0.46-0.141,0.944-0.248,1.438 c-0.958-0.234-2.006-0.415-3.106-0.532c-0.66-0.906-1.345-1.728-2.035-2.447c1.596-1.482,3.091-2.294,4.109-2.294V1.313l0,0 c-1.346,0-3.106,0.959-4.888,2.622c-1.78-1.653-3.541-2.603-4.887-2.603v1.092c1.013,0,2.515,0.807,4.109,2.278 c-0.685,0.72-1.37,1.536-2.021,2.442c-1.105,0.117-2.152,0.298-3.11,0.538C5.968,7.194,5.885,6.72,5.826,6.265 C5.597,4.396,5.88,2.942,6.54,2.556c0.147-0.088,0.338-0.127,0.562-0.127v-1.09l0,0c-0.411,0-0.782,0.088-1.105,0.272 C4.623,2.404,4.314,4.875,5.024,7.977C1.98,8.916,0,10.417,0,12.003c0,1.589,1.99,3.096,5.043,4.031 c-0.704,3.11-0.391,5.587,0.988,6.378c0.318,0.186,0.69,0.274,1.101,0.274c1.346,0,3.106-0.958,4.887-2.622 c1.781,1.654,3.541,2.603,4.889,2.603c0.409,0,0.781-0.087,1.104-0.275c1.376-0.791,1.683-3.261,0.974-6.363 C22.019,15.096,24,13.587,24,12.003z M17.631,8.74c-0.181,0.631-0.407,1.281-0.66,1.932c-0.201-0.391-0.412-0.782-0.642-1.174 c-0.227-0.392-0.464-0.773-0.705-1.145C16.319,8.456,16.989,8.583,17.631,8.74z M15.389,13.949c-0.382,0.66-0.772,1.287-1.178,1.87 c-0.729,0.063-1.468,0.097-2.211,0.097c-0.739,0-1.478-0.033-2.201-0.094c-0.406-0.581-0.803-1.203-1.185-1.858 c-0.372-0.642-0.709-1.291-1.018-1.947c0.303-0.655,0.646-1.311,1.013-1.951c0.382-0.66,0.772-1.287,1.179-1.868 C10.518,8.133,11.257,8.099,12,8.099c0.737,0,1.477,0.034,2.201,0.093c0.407,0.583,0.803,1.204,1.185,1.859 c0.372,0.641,0.709,1.292,1.016,1.947C16.095,12.652,15.758,13.309,15.389,13.949z M16.971,13.313 c0.264,0.655,0.488,1.311,0.674,1.946c-0.64,0.157-1.315,0.29-2.015,0.392c0.238-0.375,0.479-0.764,0.704-1.159 C16.559,14.1,16.77,13.704,16.971,13.313z M12.01,18.534c-0.455-0.471-0.91-0.994-1.36-1.565c0.44,0.019,0.891,0.034,1.346,0.034 c0.46,0,0.913-0.011,1.359-0.034C12.915,17.54,12.46,18.063,12.01,18.534z M8.37,15.651c-0.695-0.102-1.365-0.229-2.006-0.385 c0.181-0.632,0.406-1.284,0.66-1.935c0.201,0.393,0.411,0.784,0.641,1.175C7.896,14.897,8.13,15.279,8.37,15.651z M11.984,5.472 c0.455,0.47,0.911,0.993,1.36,1.565c-0.439-0.02-0.89-0.034-1.345-0.034c-0.46,0-0.915,0.01-1.36,0.034 C11.08,6.465,11.535,5.941,11.984,5.472z M8.365,8.354C8.125,8.729,7.886,9.116,7.66,9.513c-0.225,0.391-0.435,0.782-0.636,1.174 C6.76,10.031,6.535,9.376,6.35,8.74C6.99,8.588,7.665,8.456,8.365,8.354z M3.938,14.479c-1.732-0.74-2.853-1.708-2.853-2.476 c0-0.769,1.12-1.742,2.853-2.476c0.42-0.181,0.879-0.343,1.354-0.494c0.279,0.959,0.646,1.956,1.101,2.979 c-0.45,1.019-0.812,2.011-1.086,2.965C4.823,14.825,4.363,14.659,3.938,14.479z M6.569,21.469 c-0.665-0.382-0.954-1.835-0.729-3.704c0.054-0.461,0.142-0.943,0.249-1.438c0.959,0.234,2.006,0.416,3.107,0.533 c0.66,0.904,1.345,1.728,2.034,2.444c-1.595,1.483-3.091,2.296-4.109,2.296C6.902,21.596,6.717,21.551,6.569,21.469z M18.174,17.74 c0.229,1.87-0.054,3.321-0.715,3.708c-0.146,0.089-0.337,0.128-0.562,0.128c-1.014,0-2.516-0.807-4.11-2.279 c0.685-0.719,1.37-1.537,2.021-2.442c1.105-0.117,2.153-0.298,3.112-0.537C18.03,16.812,18.12,17.286,18.174,17.74z M20.057,14.479 c-0.421,0.181-0.88,0.342-1.356,0.493c-0.278-0.959-0.644-1.958-1.099-2.979c0.448-1.018,0.811-2.011,1.086-2.965 c0.483,0.151,0.944,0.318,1.374,0.499c1.732,0.738,2.852,1.707,2.852,2.476C22.908,12.771,21.787,13.744,20.057,14.479z"/>
      <path d="M7.098,1.333L7.098,1.333L7.098,1.333z"/>
      <circle cx="11.995" cy="12.002" r="2.235"/>
      <path d="M16.867,1.318L16.867,1.318L16.867,1.318z"/>
    </g>
  </symbol>

  <symbol id="reactivex" viewBox="116.5 136 24 24">
    <g>
      <path d="M118.064,151.172c-1.23-6.54,2.021-12.848,9.483-13.687c-1.029-1.1-2.435-1.108-3.082-0.975 c-1.142,0.364-1.106,1.104-2.401,2.058c-1.288,0.735-1.935,0.173-2.873,0.935c-0.936,0.757-0.283,2.494-0.676,2.832 c-0.39,0.676-1.599,1.277-1.818,2.131c-0.182,1.091,0.494,1.87,0.467,2.806c0.078,0.779-0.776,1.221-0.653,1.852 c0.368,1.032,1.076,1.653,1.41,1.939C117.998,151.117,118.079,151.25,118.064,151.172L118.064,151.172z"/>
      <g>
        <path d="M131.342,141.132c-0.272,0-0.493,0.221-0.493,0.493s0.221,0.494,0.493,0.494s0.494-0.222,0.494-0.494 S131.614,141.132,131.342,141.132L131.342,141.132z"/>
      </g>
      <g>
        <path d="M127.811,138.488c0.665,0,1.354,0.068,2.036,0.201c3.076,0.645,5.4,2.541,6.338,4.134 c0.396,0.672,0.463,1.149,0.395,1.373l-0.022,0.071c-0.141,0.11-0.713,0.382-1.988,0.382c-2.008,0-4.308-0.645-6.151-1.723 l-0.091-0.054l-0.1-0.032c-1.327-0.438-2.598-0.66-3.777-0.66c-2.014,0-3.73,0.632-5.018,1.839 c0.148-0.315,0.314-0.627,0.497-0.933C121.675,140.164,124.548,138.488,127.811,138.488 M127.811,137.488 c-8.129,0-12.267,9.173-9.458,14.397c-0.971-4.668,1.323-8.705,6.097-8.705c1.04,0,2.196,0.191,3.463,0.609 c2.22,1.299,4.748,1.859,6.656,1.859c1.663,0,2.856-0.426,2.966-1.158c0.582-1.884-2.65-5.768-7.482-6.78 C129.275,137.56,128.527,137.488,127.811,137.488L127.811,137.488z"/>
      </g>
      <path d="M134.079,152.52c1.423,0.154,2.774-0.188,4.026-1.208c-1.892,2.11-4.257,3.171-6.972,3.46 c1.296,1.102,2.546,1.598,3.741,1.386c-3.321,0.917-6.105-0.093-9.491-3.464c-0.177,0.907,0.781,2.321,1.77,3.225 c-5.733-2.486-6.236-10.229,0.755-12.133c-7.247-3.482-11.345,3.283-9.332,8.828c1.97,4.271,7.219,7.558,12.972,6.835 c2.795-0.343,6.968-2.27,8.673-6.835c-1.202,1.078-3.35,2.017-4.308,2.089c3.243-1.621,4.994-4.376,4.503-8.141 c-0.672,1.6-1.559,2.828-2.667,3.672c2.355-3.672,1.951-5.569,0.207-7.655C139.205,146.007,137.593,149.813,134.079,152.52 L134.079,152.52z"/>
      <g>
        <path d="M125.384,152.693c-0.177,0.907,0.781,2.321,1.77,3.225c2.667,1.859,0.853,0.99,4.917,2.395 c0.326-0.648,0.343-1.226,0.343-1.842c-0.015-0.003-0.025-0.004-0.034-0.004c-0.075,0,0.128,0.114-0.037,0.114 c-0.104,0-0.357-0.046-0.925-0.196C129.863,155.974,128.28,155.577,125.384,152.693L125.384,152.693z"/>
      </g>
      <g>
        <path d="M127.247,141.863c0,0,0.354-0.521,0.491-0.757c0.168-0.288,0.428-0.813,0.428-0.813s-2.72-0.888-3.388-0.996 c-2.075,0.539-2.083,1.408-0.922,2.738C123.984,142.184,127.247,141.863,127.247,141.863L127.247,141.863z"/>
      </g>
    </g>
  </symbol>

  <symbol id="sass" viewBox="163 188 24 24">
    <path d="M170.954,202.686c-0.382,0.239-0.956,0.626-1.401,1.046c-0.73,0.688-0.883,1.646-0.498,1.869 c0.356,0.206,1.188-0.039,1.783-0.688c0.625-0.682,0.882-1.545,0.616-2.526c-0.031,0.019-0.062,0.037-0.092,0.055l0,0.001 l-0.04,0.023C171.167,202.558,171.04,202.634,170.954,202.686z M181.673,202.376c-0.216,0.471-0.228,0.622-0.161,0.669 c0.313-0.113,0.832-0.385,0.836-1.112c0.001-0.109-0.023-0.226-0.062-0.348C181.95,201.882,181.758,202.192,181.673,202.376 L181.673,202.376z M185.037,200.957c-0.838-0.098-1.491,0.02-1.999,0.23c0.094,0.245,0.167,0.499,0.176,0.757 c0.024,0.562-0.363,0.979-0.767,1.276c-0.236,0.174-0.487,0.289-0.697,0.358c-0.169,0.071-0.393,0.145-0.552,0.112 c-0.35-0.071-0.536-0.382-0.299-1.069c0.129-0.37,0.501-0.937,1.1-1.423c-0.137-0.281-0.289-0.567-0.366-0.832 c-0.153-0.519-0.199-0.833-0.199-0.833s-0.494,1.024-1.132,1.956c-0.036,0.054-0.073,0.106-0.109,0.16 c0.125,0.291,0.224,0.599,0.237,0.908c0.022,0.562-0.221,0.988-0.625,1.286c-0.22,0.161-0.453,0.272-0.652,0.343 c-0.129,0.057-0.389,0.148-0.76,0.173c-0.203,0.015-0.397,0.002-0.507-0.081c-0.149-0.113-0.168-0.253-0.091-0.443 c0.066-0.162,0.558-0.723,0.969-1.214c0.114-0.135,0.222-0.273,0.319-0.401l-0.003-0.006c0,0,0.074-0.097,0.196-0.264 c-0.15-0.324-0.342-0.662-0.431-0.968c-0.153-0.519-0.199-0.833-0.199-0.833s-0.501,1.284-1.023,2.308 c-0.403,0.794-0.673,1.275-0.794,1.485l-0.002,0.009c0,0-0.019,0.03-0.049,0.079l-0.024,0.039v-0.004 c-0.136,0.2-0.439,0.592-0.741,0.592c-0.83,0-0.525-1.684-0.525-1.684s-0.243,0.623-0.516,1.158 c-0.223,0.437-0.425,0.807-0.869,0.807c-0.127,0-0.329-0.003-0.497-0.163c-0.381-0.361-0.672-1.281-0.615-1.992 c0.049-0.605,0.142-1.024,0.27-1.374c-0.228,0.124-0.491,0.271-0.758,0.429l-0.412,0.241l0.013,0.025 c0.341,0.658,0.432,2.101-0.311,3.209c-0.742,1.108-2.125,1.783-3.471,1.408c-0.435-0.121-1.091-1.02-0.525-2.272 c0.5-1.105,2.496-2.149,3.021-2.41l0.145-0.079c-1.049-0.918-3.667-2.156-4.035-4.057c-0.104-0.536,0.147-1.815,1.719-3.287 c1.322-1.237,3.161-2.185,4.859-2.789c2.854-1.014,5.87-0.416,6.333,1.404c0.455,1.789-1.097,3.93-3.085,4.699 c-1.775,0.687-3.243,0.578-3.845,0.38c-0.686-0.226-1.087-0.678-1.186-0.933c-0.039-0.1-0.105-0.268,0-0.326 c0.064-0.036,0.09-0.027,0.263,0.163c0.164,0.181,0.821,0.665,2.072,0.525c3.281-0.368,5.259-2.919,4.634-4.292 c-0.438-0.961-2.967-1.395-6.126,0.181c-3.857,1.923-4.066,3.509-4.1,4.11c-0.09,1.657,2.043,2.528,3.197,3.759l0.044,0.05 c0.216-0.119,0.444-0.245,0.668-0.368c0.582-0.319,1.13-0.619,1.386-0.759c0.406-0.59,1.23-1.242,1.826-1.242 c0.951,0,0.625,1.368,0.625,1.368s0.019-0.062,0.045-0.063s0.132-0.18,0.426-0.073c0.302,0.11,0.233,0.323,0.234,0.344 c0.004,0.042-0.356,1.258-0.506,2.037c-0.072,0.373-0.03,0.644-0.01,0.644c0.03,0,0.09-0.095,0.146-0.196l-0.002-0.003 c0,0,0.043-0.077,0.112-0.216l0.014-0.028l0.001,0.001c0.083-0.162,0.2-0.401,0.334-0.698c0.266-0.582,1.272-2.83,1.358-3.078 c0.085-0.249,0.13-0.506,0.172-0.616c0.041-0.11,0.397-0.194,0.813-0.191c0.417,0.003,0.459,0.181,0.462,0.218 s-0.197,0.53-0.244,0.878c-0.046,0.349-0.002,0.522,0.036,0.815c0.025,0.192,0.145,0.435,0.286,0.71 c0.431-0.705,1.189-2.052,1.262-2.43c0.05-0.258,0.13-0.506,0.172-0.616c0.043-0.11,0.398-0.193,0.814-0.19 c0.416,0.003,0.459,0.181,0.461,0.218c0.004,0.037-0.198,0.53-0.244,0.878c-0.045,0.348-0.002,0.522,0.036,0.815 c0.033,0.25,0.227,0.587,0.418,0.971c0.524-0.259,1.142-0.432,1.863-0.436c0.299-0.002,0.646,0.029,0.825,0.084v-5.76 c0-0.407-0.208-0.781-0.56-0.984l-9.396-5.431c-0.352-0.203-0.782-0.203-1.133,0l-9.371,5.429c-0.352,0.203-0.539,0.578-0.539,0.984 v10.867c0,0.405,0.189,0.78,0.54,0.983l9.386,5.433c0.351,0.203,0.778,0.203,1.129,0l9.389-5.433 c0.352-0.204,0.557-0.578,0.557-0.983v-4.393C185.381,201.004,185.206,200.977,185.037,200.957L185.037,200.957z M174.928,200.388 c-0.202,0.226-0.545,0.808-0.706,1.296c-0.32,0.967-0.181,1.95,0.044,2.01c0.265,0.068,0.698-1.225,0.906-1.73 c0.13-0.317,0.635-1.722,0.524-1.91C175.61,199.906,175.252,200.024,174.928,200.388L174.928,200.388z M178.583,203.648 c0,0-0.063,0.061-0.036,0.077c0.038,0.022,0.118-0.006,0.206-0.052c0.249-0.156,0.807-0.547,0.808-1.125 c0-0.016-0.001-0.032-0.002-0.05c-0.13,0.17-0.248,0.321-0.351,0.449C179.031,203.167,178.583,203.648,178.583,203.648 L178.583,203.648z"/>
  </symbol>

  <symbol id="storybook" viewBox="0 0 24 24">
    <g>
      <g>
        <g>
          <g transform="translate(2166 275)">
            <path d="M4.505,23.197L3.436,1.249H2.631l0.803,21.948H4.505z"/>
          </g>
        </g>
        <g>
          <g transform="translate(2180 261)">
            <path d="M4.951,23.197L3.881,1.249L21.367,0v24L4.951,23.197z"/>
          </g>
        </g>
        <g>
          <g transform="translate(2220 301)">
            <path fill="#FFFFFF" d="M14.108,9.393l3.447-0.086c0.085-3.34-1.647-4.988-4.669-4.988 c-3.019,0-4.71,1.714-4.71,4.283c0,4.475,5.782,4.56,5.782,7c0,0.687-0.321,1.092-1.029,1.092c-0.919,0-1.283-0.598-1.24-2.27 H8.07c-0.278,4.133,2.141,5.075,4.903,5.075c2.677,0,4.774-1.241,4.774-3.938c0-4.797-5.866-4.668-5.866-7.045 c0-0.965,0.687-1.093,1.092-1.093C13.401,7.423,14.173,7.594,14.108,9.393z"/>
          </g>
        </g>
      </g>
    </g>
    <g>
      <path d="M4.502,23.202L3.431,1.245H2.627l0.804,21.957H4.502z"/>
      <path d="M19.23,0.148v3.059l-1.055-0.953l-1.267,0.953l0.218-2.909L3.877,1.245l1.071,21.957l16.423,0.804v-24.01L19.23,0.148z M12.976,19.504c-2.765,0-5.185-0.943-4.906-5.077h3.62c-0.042,1.671,0.322,2.271,1.242,2.271c0.707,0,1.029-0.406,1.029-1.093 c0-2.441-5.785-2.527-5.785-7.004c0-2.571,1.692-4.286,4.713-4.286c3.02,0,4.755,1.651,4.671,4.993l-3.449,0.085 c0.062-1.799-0.708-1.971-1.136-1.971c-0.408,0-1.093,0.128-1.093,1.093c0,2.378,5.869,2.249,5.869,7.049 C17.752,18.262,15.652,19.504,12.976,19.504z"/>
    </g>
  </symbol>

  <symbol id="kotlin" viewBox="0 0 24 24">
    <g>
      <g>
        <path d="M12.038,13.377L21.597,23H2.414L12.038,13.377 M12.04,11.96L0,24h24L12.04,11.96L12.04,11.96z"/>
      </g>
      <g>
        <path d="M9.751,1L1,10.449V1H9.751 M12.04,0H0v13L12.04,0L12.04,0z"/>
      </g>
      <polygon points="12.04,0 0,12.68 0,24 12.04,11.96 24,0 	"/>
    </g>
  </symbol>

  <symbol id="typescript" viewBox="159.167 183.167 24 24">
    <path d="M159.167,195.167v12h24v-24h-24V195.167z M173.885,194.745v1.078h-3.094v9.844h-2.531v-9.844h-3.094v-2.156h8.719V194.745z M179.979,193.797c0.385,0.075,0.815,0.179,0.966,0.234l0.253,0.104v1.172c0,0.646-0.019,1.172-0.037,1.172 c-0.02,0-0.216-0.104-0.441-0.225c-0.844-0.479-2.193-0.656-3.019-0.413c-0.196,0.057-0.487,0.234-0.638,0.385 c-0.225,0.216-0.271,0.347-0.271,0.693c0,0.375,0.047,0.479,0.356,0.769c0.196,0.188,0.928,0.619,1.641,0.976 c1.5,0.74,2.259,1.368,2.606,2.146c0.309,0.694,0.318,2.156,0.019,2.812c-0.281,0.619-0.9,1.247-1.51,1.538 c-1.294,0.609-3.403,0.665-5.053,0.121l-0.591-0.196v-2.606l0.469,0.338c0.609,0.44,1.396,0.712,2.222,0.769 c0.825,0.056,1.435-0.094,1.81-0.45c0.234-0.216,0.281-0.338,0.281-0.693c0-0.685-0.394-1.041-2.006-1.828 c-1.426-0.703-1.875-1.022-2.297-1.641c-0.938-1.359-0.656-3.441,0.6-4.388C176.407,193.77,178.179,193.469,179.979,193.797z"/>
  </symbol>

  <symbol id="vuejs" viewBox="188 188 24 24">
    <path d="M206.7,189.608h-3.929l-2.771,4.8l-2.771-4.8H188l12,20.784l12-20.784H206.7z M189.732,190.608h3.646l0-0.001L200,202.078 l6.625-11.474l3.643,0.004L200,208.393L189.732,190.608z"/>
  </symbol>

  <symbol id="webcomponents" viewBox="68.5 54 24 24">
    <path d="M80.215,75.708l-5.633-9.738l5.708-9.738h-6.172L68.5,65.97l5.618,9.738H80.215z"/>
    <path d="M87.872,72.139l-1.491,2.569h-5.588l-1.483-2.569h4.48H87.872 M89.608,71.139H83.79h-6.211l2.637,4.569h6.742L89.608,71.139 L89.608,71.139z"/>
    <path d="M85.774,68.096l2.503,3.044l1.302-0.001l-3.94-4.764l0,0l-2.382,3.985l0.565,0.779h1.213l-0.592-0.815L85.774,68.096"/>
    <path d="M89.062,62.581l-1.701,2.015h-0.928h-0.227l-1.203-2.015H89.062 M89.878,61.581h-0.944h-5.692l2.397,4.015h0.794h1.392 l2.616-3.079L89.878,61.581L89.878,61.581z"/>
    <path d="M86.876,58.123l1.478,2.59l-0.715,0.868l-3.193,0.054L86.876,58.123 M88.922,61.596l0.642-0.779l-2.606-4.569l0,0 l-3.7,5.349l0.589,0.985"/>
    <path d="M88.11,62.581"/>
    <path d="M88.11,62.581"/>
    <path d="M89.563,71.071"/>
    <path d="M90.504,67.359l-1.195,2.016h-1.188l-1.658-2.016h0.144H90.504 M92.26,66.359h-5.653h-0.968L85.1,67.275l2.549,3.1h2.229 L92.26,66.359L92.26,66.359z"/>
    <path d="M87.887,66.356l-0.348-0.423l2.212-2.619l1.586,2.67l-0.231,0.39l1.154-0.015l0.24-0.375l-2.606-4.389l0,0l-3.365,3.985 l-0.291,0.345l0.371,0.451L87.887,66.356z"/>
    <path d="M90.296,62.285"/>
    <path d="M86.266,57.247l-1.778,2.569h-5.163l1.483-2.569H86.266z M86.927,56.247H80.23l-2.637,4.569h7.418l2.506-3.587 L86.927,56.247L86.927,56.247z"/>
  </symbol>

  <symbol id="webpack" viewBox="0 0 24 24">
    <path d="M22.137,18.498L12.41,24v-4.287l6.061-3.333L22.137,18.498z M22.803,17.896V6.388l-3.56,2.055v7.395L22.803,17.896z M1.829,18.498L11.556,24v-4.287l-6.06-3.333L1.829,18.498z M1.164,17.896V6.388l3.56,2.055v7.395L1.164,17.896z M1.58,5.644 L11.556,0v4.144L5.166,7.659L5.117,7.687L1.58,5.644z M22.386,5.644L12.41,0v4.144l6.391,3.515l0.049,0.028L22.386,5.644z"/>
    <path d="M11.616,17.794l-5.14-2.826v-5.6l5.14,2.968V17.794z M12.35,17.794l5.14-2.826v-5.6l-5.14,2.968V17.794z M6.824,8.72 l5.16-2.838l5.161,2.838l-5.161,2.98L6.824,8.72z"/>
  </symbol>
</svg>
