<?xml version="1.0" encoding="UTF-8"?>
<svg width="24px" height="24px" viewBox="0 0 24 24" version="1.1" xmlns="http://www.w3.org/2000/svg" xmlns:xlink="http://www.w3.org/1999/xlink">
    <!-- Generator: Sketch 43.2 (39069) - http://www.bohemiancoding.com/sketch -->
    <title>logo.svg</title>
    <desc>Created with Sketch.</desc>
    <defs></defs>
    <g id="Page-1" stroke="none" stroke-width="1" fill="none" fill-rule="evenodd">
        <g id="logo.svg">
            <g id="Group" transform="translate(11.752729, 12.503650) rotate(-373.000000) translate(-11.752729, -12.503650) translate(-1.747271, -0.496350)">
                <path d="M13.0852302,19.0624888 C10.0447118,19.0624888 7.57988468,16.5976617 7.57988468,13.5571433 C7.57988468,10.5166249 10.0447118,8.05179776 13.0852302,8.05179776 C16.1257486,8.05179776 18.5905757,10.5166249 18.5905757,13.5571433 C18.5905757,16.5976617 16.1257486,19.0624888 13.0852302,19.0624888 Z M13.1263205,18.7270414 C15.676377,18.7270414 17.7436063,16.6598122 17.7436063,14.1097557 C17.7436063,11.5596992 15.676377,9.49246999 13.1263205,9.49246999 C10.576264,9.49246999 8.50903482,11.5596992 8.50903482,14.1097557 C8.50903482,16.6598122 10.576264,18.7270414 13.1263205,18.7270414 Z" id="Oval-5" fill="#FF8400" fill-rule="nonzero" transform="translate(13.085230, 13.557143) rotate(26.000000) translate(-13.085230, -13.557143) "></path>
                <path d="M13.6016601,22.8633201 C8.13312427,22.8633201 3.70000005,18.4301959 3.70000005,12.96166 C3.70000005,7.49312416 8.13312427,3.05999994 13.6016601,3.05999994 C19.070196,3.05999994 23.5033202,7.49312416 23.5033202,12.96166 C23.5033202,18.4301959 19.070196,22.8633201 13.6016601,22.8633201 Z M13.4067392,22.4734782 C18.2374298,22.4734782 22.1534783,18.5574297 22.1534783,13.726739 C22.1534783,8.89604843 18.2374298,4.97999994 13.4067392,4.97999994 C8.57604853,4.97999994 4.66000005,8.89604843 4.66000005,13.726739 C4.66000005,18.5574297 8.57604853,22.4734782 13.4067392,22.4734782 Z" id="Oval-5" fill="#FFFFFF" fill-rule="nonzero" transform="translate(13.601660, 12.961660) rotate(21.000000) translate(-13.601660, -12.961660) "></path>
                <path d="M13.856748,23.5149772 C7.82134536,23.5149772 2.92868479,18.6223166 2.92868479,12.586914 C2.92868479,6.55151129 7.82134536,1.65885072 13.856748,1.65885072 C19.8921507,1.65885072 24.7848113,6.55151129 24.7848113,12.586914 C24.7848113,18.6223166 19.8921507,23.5149772 13.856748,23.5149772 Z M13.4485959,22.7388507 C18.77267,22.7388507 23.0886848,18.2707734 23.0886848,13.0987618 C23.0886848,7.92675016 18.77267,3.45867288 13.4485959,3.45867288 C8.12452177,3.45867288 3.80850695,7.7746877 3.80850695,13.0987618 C3.80850695,18.4228359 8.12452177,22.7388507 13.4485959,22.7388507 Z" id="Oval-5" fill="#8BDAE0" fill-rule="nonzero"></path>
                <circle id="Oval-6" fill="#FF0000" cx="13.0704105" cy="14.0704105" r="1"></circle>
            </g>
        </g>
    </g>
</svg>